<?xml version="1.0" encoding="utf-8" ?><svg xmlns="http://www.w3.org/2000/svg" xmlns:xlink="http://www.w3.org/1999/xlink" width="2815" height="2815" viewBox="0 0 2815 2815"><path transform="scale(5.49878 5.49878)" d="M309.081 35.3332C314.268 34.9077 318.948 35.4767 323.66 37.9164C337.673 45.1724 337.581 56.7087 340.433 70.4226C340.962 72.9671 341.42 75.8631 342.244 78.2781L342.377 78.6596C342.914 77.4848 343.499 76.3321 344.13 75.2045C347.623 68.9306 351.328 62.747 354.9 56.5186C358.472 50.2886 363.338 45.9313 370.334 43.9699C377.124 42.024 384.413 42.9047 390.545 46.412C396.562 49.8534 400.926 55.5862 402.643 62.3013C405.566 73.762 400.579 80.7356 395.201 90.0371L386.851 104.391C401.983 100.622 415.557 90.0124 430.979 99.7785C436.762 103.42 440.853 109.217 442.344 115.886C444.447 125.322 441.094 135.141 433.659 141.32C427.896 146.09 411.105 150.882 403.337 153.525L362.513 167.515C359.942 168.377 349.237 171.534 347.921 172.796C345.837 174.793 339.415 186.56 337.741 189.459L322.624 215.655C319.927 220.336 317.071 225.61 314.215 230.133C331.818 230.659 349.8 229.833 367.436 230.193C371.718 230.281 376.75 230.338 380.97 230.018L423.459 192.809C429.865 187.191 436.241 181.542 442.719 176.01C448.214 171.318 455.158 168.978 462.386 169.785C469.328 170.542 475.68 174.04 480.031 179.502C484.275 184.912 486.183 191.793 485.331 198.616C483.977 209.658 477.066 214.637 469.256 221.435C466.019 224.254 462.76 227.314 459.38 229.953C462.998 230.277 466.895 230.039 470.535 230.108C483.027 230.346 494.229 228.023 504.004 237.687C508.856 242.55 511.592 249.132 511.618 256.001C511.519 262.96 508.669 269.597 503.691 274.461C500.642 277.413 496.645 279.794 492.545 280.928C485.861 282.777 467.16 281.986 459.311 281.902C464.239 285.707 468.82 290.274 473.628 294.231C479.55 299.106 483.884 304.284 485.2 312.054C486.366 318.861 484.766 325.852 480.757 331.475C476.75 337.103 470.678 340.914 463.869 342.076C458.479 342.965 452.947 342.074 448.108 339.538C443.285 337.054 436.827 330.707 432.522 326.997L397.786 296.595C393.575 292.902 385.151 285.026 381.098 282.179L380.843 282.004C376.021 281.651 369.308 281.83 364.38 281.831L330.794 281.823C325.712 281.821 319.129 282.066 314.257 281.797C316.75 285.616 320.182 292.038 322.543 296.125L338.534 323.808C341.422 328.805 344.47 334.328 347.51 339.2C349.884 340.525 361.056 344.064 364.209 345.126L406.825 359.669C409.476 360.573 412.19 361.52 414.843 362.396C425.335 365.857 434.389 367.944 439.956 378.507C443.176 384.656 443.793 391.841 441.669 398.449C439.45 405.11 434.643 410.598 428.332 413.674C418.338 418.635 410.376 415.628 400.744 412.28L386.864 407.487C391.298 414.852 395.588 422.739 399.927 430.188C403.52 436.356 404.424 443.881 402.321 450.786C400.249 457.417 395.621 462.949 389.46 466.16C383.349 469.372 376.2 469.98 369.634 467.846C358.544 464.304 355.141 455.999 349.751 446.72C347.222 442.365 344.626 438.003 342.338 433.518C341.393 436.001 341.099 438.578 340.516 441.11C337.894 452.503 338.287 463.132 328.537 471.096C323.244 475.469 316.418 477.538 309.588 476.84C302.653 476.107 296.302 472.623 291.958 467.168C288.549 462.947 286.603 457.734 286.411 452.312C286.2 447.168 288.883 435.79 289.981 430.255L298.389 387.691C299.534 381.917 302.03 371.099 302.581 365.62L302.619 365.225C301.209 362.218 297.784 356.68 295.948 353.493L282.366 329.943C279.774 325.463 274.19 317.258 273.479 312.06C273.11 309.36 275.66 305.676 278.364 304.43C280.558 303.422 283.076 303.389 285.294 304.341C288.936 305.899 291.037 310.629 292.958 313.964L299.727 325.759C303.394 332.201 307.093 338.625 310.824 345.03C322.409 364.987 321.456 359.213 317.058 381.45L307.945 427.56L305.234 441.273C304.486 445.054 302.747 451.034 304.26 454.524C305.187 456.711 306.983 458.413 309.216 459.221C313.488 460.729 318.436 458.751 320.07 454.588C321.427 451.133 322.107 446.374 322.827 442.695L327.428 419.167C328.091 415.782 329.128 409.538 330.109 406.434L330.217 406.099C330.636 405.091 331.232 404.167 331.976 403.369C333.666 401.576 335.377 401.022 337.727 400.935C342.368 400.769 344.578 403.45 346.679 407.111C349.112 411.348 351.557 415.558 353.99 419.777L365.96 440.441C367.625 443.318 369.47 447.41 371.74 449.677C375.224 453.156 381.381 452.355 384.408 448.666C386.081 446.626 387.005 442.342 385.747 440.008C383.535 435.904 381.136 431.867 378.811 427.832L365.149 404.157C362.547 399.669 357.74 393.775 360.275 388.497C364.31 380.093 373.025 384.664 379.418 386.876L402.684 394.864C406.961 396.329 411.37 398.037 415.764 398.994C419.028 399.846 424.126 397.143 425.162 393.863C428.235 384.126 419.593 382.081 413.357 379.959L401.198 375.834L358.307 361.198C352.014 359.038 345.503 356.983 339.259 354.702C337.659 354.117 335.546 352.637 334.644 351.177C331.87 346.687 329.174 341.869 326.536 337.296L310.464 309.435L298.159 288.16C295.889 284.265 293.516 280.449 291.592 276.389C289.812 272.633 292.231 266.166 296.375 265.318C302.41 264.084 309.688 264.573 315.943 264.577L339.813 264.594L368.43 264.584C373.278 264.577 378.149 264.5 382.992 264.637C385.567 264.71 388.194 265.505 390.168 267.203C395.552 271.831 400.86 276.557 406.213 281.226L441.9 312.46C444.634 314.856 453.772 323.295 456.47 324.538C458.473 325.444 460.756 325.509 462.807 324.718C465.073 323.839 466.882 322.073 467.813 319.828C470.597 313.097 464.959 309.369 460.626 305.611C450.567 296.886 440.465 288.167 430.526 279.31C426.16 275.42 427.857 267.499 433.217 265.47C436.33 264.384 441.962 264.721 445.329 264.726L468.24 264.768C474.49 264.778 482.84 265.329 488.979 263.976C490.769 263.342 493.346 261.033 493.813 259.184C497.229 245.639 483.087 247.336 476.522 247.349L450.672 247.372C446.008 247.379 441.357 247.475 436.694 247.273C429.723 247.191 425.638 239.906 429.43 234.047C430.979 231.654 435.222 228.381 437.517 226.381L455.882 210.293C459.167 207.424 462.614 204.719 465.713 201.648C468.323 199.061 469.232 195.541 467.769 192.108C466.841 189.912 465.037 188.206 462.794 187.401C459.148 186.09 455.927 187.255 453.109 189.677C447.87 194.178 442.704 198.775 437.509 203.329L399.512 236.562C384.766 249.482 389.219 247.486 368.891 247.486L343.391 247.48L316.183 247.495C311.337 247.495 306.449 247.52 301.608 247.46C299.927 247.333 297.778 247.349 296.216 246.704C291.223 244.643 289.587 239.163 292.101 234.531C295.24 228.748 298.619 223.091 301.912 217.402L320.135 185.832L330.191 168.403C331.702 165.79 333.782 161.916 335.552 159.585C336.986 157.699 342.12 156.302 344.484 155.498C361.823 149.602 379.157 143.653 396.491 137.737L411.248 132.706C414.491 131.621 417.953 130.643 420.993 129.175C428.7 125.749 426.39 113.714 418.479 112.941C414.58 112.561 405.467 116.249 401.59 117.566L379.266 125.177C372.97 127.346 363.475 132.258 359.9 122.335C358.491 118.423 361.806 113.66 363.777 110.25C370.555 98.5255 377.444 86.7493 384.206 75.0063C385.676 72.4514 386.958 69.057 386.028 66.1203C385.303 63.8509 383.653 61.9931 381.486 61.0043C378.578 59.6678 373.994 59.9377 371.837 62.3354C369.337 65.1158 367.229 69.2886 365.358 72.5305L351.997 95.7229C349.948 99.2888 344.996 109.532 341.026 110.685C329.921 113.909 329.172 101.798 327.745 94.3834L323.231 71.2562C322.333 66.6278 321.45 55.2577 316.234 53.2281C308.989 50.4087 302.55 55.01 303.782 63.0159C304.427 67.2049 305.553 72.0937 306.414 76.5688L315.986 124.945L318.639 138.398C321.148 151.134 321.259 148.497 315.126 159.426C311.462 165.886 307.762 172.325 304.026 178.743L294.426 195.41C292.169 199.329 289.096 206.355 284.664 207.852C280.451 209.276 275.149 206.651 273.921 202.227C273.441 200.533 273.496 198.733 274.076 197.071C275.121 194.143 280.949 184.586 282.836 181.314L302.735 146.799C301.641 139.713 299.854 131.654 298.451 124.568L290.702 85.4268C289.356 78.6136 287.825 71.7263 286.753 64.8725C284.465 50.2324 294.518 37.1559 309.081 35.3332Z"/><path transform="scale(5.49878 5.49878)" d="M212.449 214.569C216.075 214.234 220.453 215.95 221.658 219.713C225.031 230.247 214.733 230.692 208.633 234.518C204.438 237.125 201.118 240.929 199.102 245.439C196.337 251.769 196.168 258.931 198.632 265.385C202.14 274.309 208.757 278.582 217.263 281.36C221.466 282.732 223.515 288.838 221.353 292.645C219.691 295.572 218.124 296.605 214.947 297.624C210.484 297.826 203.846 294.673 200.113 292.385C190.501 286.525 183.609 277.087 180.955 266.147C178.305 255.008 180.171 243.273 186.145 233.505C191.981 223.886 201.475 217.051 212.449 214.569Z"/><path transform="scale(5.49878 5.49878)" d="M185.228 188.593L185.342 188.235C190.172 172.789 176.367 152.016 167.153 140.187C163.524 135.528 158.884 131.66 155.291 127.03C145.896 114.876 142.97 98.9236 147.44 84.2259C152.186 68.1052 163.126 54.5222 177.866 46.4519C187.446 41.3133 204.934 34.0643 216.513 35.6748C220.482 36.2268 223.221 42.1458 221.884 46.2698C221.166 48.4228 219.632 50.2082 217.612 51.2414C215.215 52.4612 211.946 52.7023 209.315 53.2038C188.732 57.1275 171.488 67.2809 164.295 87.5076C161.5 95.1939 161.902 103.68 165.411 111.067C168.454 117.436 173.169 120.924 177.692 126.058C186.1 135.603 192.852 146.524 198.059 158.111C201.446 165.647 202.888 173.178 203.459 181.358C207.972 180.493 214.433 178.556 218.462 181.15C220.313 182.357 221.598 184.262 222.022 186.431C222.515 188.743 222.028 191.157 220.677 193.097C217.46 197.628 210.756 197.121 205.773 198.568C202.56 199.501 200.149 200.324 197.075 201.723C172.925 212.761 158.986 238.439 162.887 264.703C165.194 280.269 173.548 294.296 186.136 303.74C190.25 306.798 195.863 310.044 200.707 311.816C203.382 312.782 206.12 313.564 208.903 314.154C214.507 315.357 220.963 315.467 222.222 322.607C222.591 324.701 221.811 327.066 220.552 328.733C216.794 333.708 211.215 332.201 206.089 331.122C192.186 328.195 179.961 321.462 169.545 311.878L169.389 311.732C153.137 330.037 142.41 352.577 138.454 376.734C134.471 400.871 138.657 419.76 157.781 436.371C170.691 447.422 186.108 455.148 202.688 458.876C209.506 460.343 221.808 459.048 222.43 468.244C222.59 470.608 221.795 472.937 220.223 474.709C216.236 479.228 208.031 477.33 202.676 476.327C181.191 472.302 159.818 461.702 143.817 446.806C129.35 433.588 120.758 415.143 119.947 395.564C118.831 363.114 135.09 323.249 157.23 299.688C157.617 299.277 158.008 298.87 158.403 298.467C157.232 296.702 156.111 294.905 155.04 293.078C152.111 292.282 148.976 292.248 145.964 292.356C136.086 292.709 128.824 296.728 120.433 301.547C114.324 305.085 108.583 309.222 103.294 313.897C99.7869 317.057 96.4607 320.714 92.7101 323.546C65.8303 343.847 28.9892 328.771 13.5017 301.746C7.55307 291.218 3.50719 279.723 1.54978 267.79C1.11838 264.997 0.60528 256.935 0 254.937L0 250.8L0.0682232 250.479C0.798922 246.861 0.818348 243.046 1.39565 239.376C5.88739 211.719 21.6334 182.077 44.947 165.905C64.2732 152.498 86.3334 151.384 108.642 156.003C136.487 161.767 158.383 173.35 179.748 191.838C181.688 190.769 183.351 189.77 185.228 188.593ZM90.4826 302.417C99.8886 293.463 111.433 286.341 123.144 280.845C130.961 277.176 139.304 275.301 147.902 274.928C141.484 251.001 148.686 220.616 166.678 203.245C145.644 183.892 111.809 169.785 83.0771 170.857C43.306 172.296 16.9391 219.182 17.596 255.478C17.8953 272.018 25.0686 292.514 37.1594 304.114C44.3812 310.827 55.6322 316.523 65.7163 315.836C77.4669 315.035 82.6551 309.95 90.4826 302.417Z"/><path transform="scale(5.49878 5.49878)" d="M245.577 0L250.024 0C252.161 1.16647 255.758 3.38369 255.99 5.84788C256.833 14.7576 256.453 27.0552 256.447 35.9169L256.444 104.176L256.442 423.138L256.443 477.418L256.462 493.954C256.469 498.036 257.068 504.271 255.124 507.92C254.021 509.991 251.649 510.812 249.919 512L245.819 512C242.159 509.975 239.67 508.449 239.427 503.823C239.263 500.706 239.336 497.652 239.338 494.534L239.343 477.892L239.352 424.774L239.35 106.658L239.336 34.8395L239.331 17.8517C239.331 15.2555 239.363 12.4998 239.367 9.91975C239.377 4.33648 241.004 2.61365 245.577 0Z"/></svg>